<svg width="200" height="200" xmlns="http://www.w3.org/2000/svg" viewBox="0 0 24 24" id="chat"><path fill="#59295e" d="M3 4.51A2.49 2.49 0 0 0 .5 7v5a2.49 2.49 0 0 0 2 2.45V16c.002.19.11.363.28.45.068.031.144.049.22.05a.472.472 0 0 0 .3-.1l2.53-1.9h3.68V17A2.5 2.5 0 0 0 12 19.5h6.17l2.53 1.9a.47.47 0 0 0 .3.1.54.54 0 0 0 .22-.05.51.51 0 0 0 .28-.45v-1.56a2.48 2.48 0 0 0 2-2.44v-6A2.48 2.48 0 0 0 21 8.5h-7.5V7A2.49 2.49 0 0 0 11 4.51Z"></path><path fill="#fcecdb" d="M3 5.51h8A1.49 1.49 0 0 1 12.5 7v1.5H12A2.49 2.49 0 0 0 9.51 11v2.5H5.68a.625.625 0 0 0-.3.1L3.51 15v-1a.51.51 0 0 0-.51-.5A1.49 1.49 0 0 1 1.5 12V7A1.49 1.49 0 0 1 3 5.51Z"></path><path fill="#59295e" d="M3.979 7.5A.5.5 0 0 0 4 8.5h5a.5.5 0 0 0 0-1H4a.5.5 0 0 0-.021 0z"></path><path fill="#86d172" d="M12 9.5h9a1.49 1.49 0 0 1 1.5 1.5v6a1.5 1.5 0 0 1-1.5 1.5.5.5 0 0 0-.5.5v1l-1.87-1.4a.51.51 0 0 0-.3-.1H12a1.49 1.49 0 0 1-1.49-1.5v-6A1.49 1.49 0 0 1 12 9.5Z"></path><path fill="#59295e" d="M4 10.51a.5.5 0 0 0-.5.5.5.5 0 0 0 .5.5h3a.5.5 0 0 0 .5-.5.5.5 0 0 0-.5-.5zm8.979.99a.5.5 0 0 0 .021 1h7a.5.5 0 0 0 0-1h-7a.5.5 0 0 0-.021 0zm0 2a.5.5 0 0 0 .021 1h7a.5.5 0 0 0 0-1h-7a.5.5 0 0 0-.021 0zm0 2a.5.5 0 0 0 .021 1h7a.5.5 0 0 0 0-1h-7a.5.5 0 0 0-.021 0z"></path></svg>